<?xml version="1.0" encoding="UTF-8"?>
<svg id="Layer_1" data-name="Layer 1" xmlns="http://www.w3.org/2000/svg" viewBox="0 0 512 512">
  <defs>
    <style>
      .cls-1 {
        fill-rule: evenodd;
      }

      .cls-1, .cls-2 {
        fill: #1c2e5b;
      }

      .cls-3 {
        fill: #43557c;
      }

      .cls-4 {
        fill: #f0b71a;
      }
    </style>
  </defs>
  <path class="cls-4" d="M256,98.39c-10.94,0-21.36,2.21-30.85,6.19-4,1.68-6.7,5.5-6.7,9.84v132.52c0,3.98,2.25,7.63,5.81,9.41l27.03,13.52c2.96,1.48,6.45,1.48,9.41,0l27.03-13.52c3.56-1.78,5.81-5.42,5.81-9.41V114.42c0-4.34-2.7-8.16-6.7-9.84-9.49-3.98-19.91-6.19-30.85-6.19Z"/>
  <rect class="cls-3" x="85.04" y="386.56" width="64.19" height="95.87" transform="translate(-272.92 210.09) rotate(-45)"/>
  <path class="cls-1" d="M118.61,349.51c-17.36,17.36-12.74,50.13,10.32,73.19s55.83,27.68,73.19,10.32l6.58-6.58c3.95-3.95.7-10.67-4.85-10.03-22.31,2.57-35.43-6.87-48.6-20.03-9.48-9.48-20.62-20.62-18.08-50.65.47-5.51-6.14-8.65-10.05-4.74l-8.52,8.52Z"/>
  <path class="cls-1" d="M91.35,385.12l75.16,75.16c2.31,2.31,6.05,2.31,8.35,0l31.9-31.9-65.48-18.03-18.03-65.48-31.9,31.9c-2.31,2.31-2.31,6.05,0,8.35Z"/>
  <rect class="cls-2" x="104.36" y="375.44" width="25.54" height="118.1" rx="5.91" ry="5.91" transform="translate(-272.92 210.09) rotate(-45)"/>
  <rect class="cls-4" x="83.54" y="396.26" width="25.54" height="118.1" rx="5.91" ry="5.91" transform="translate(-293.75 201.46) rotate(-45)"/>
  <path class="cls-2" d="M289.92,235.31l-165.49,165.49,26.4,26.4,165.49-165.49c9.71,1.54,19.99-1.43,27.48-8.91,12.42-12.42,12.42-32.55,0-44.97-12.42-12.42-32.55-12.42-44.97,0-7.48,7.48-10.45,17.77-8.91,27.48ZM316.02,210.56l19.76,5.29,5.29,19.76-14.46,14.46-19.76-5.29-5.29-19.76,14.46-14.46Z"/>
  <path class="cls-4" d="M292.72,271.96l-116.02,116.02c-4.83,4.82-12.65,4.83-17.47,0-1.58-1.58-2.6-3.5-3.14-5.52-.1,3.28,1.08,6.59,3.58,9.1,4.82,4.83,12.65,4.83,17.47,0l116.02-116.02c3.24-3.24,4.25-7.82,3.14-11.95-.09,3.04-1.26,6.05-3.58,8.37Z"/>
  <rect class="cls-3" x="346.93" y="402.4" width="95.87" height="64.19" transform="translate(-191.58 406.47) rotate(-45)"/>
  <path class="cls-1" d="M393.39,349.51c17.36,17.36,12.74,50.13-10.32,73.19-23.06,23.06-55.83,27.68-73.19,10.32l-6.58-6.58c-3.95-3.95-.7-10.67,4.85-10.03,22.31,2.57,35.43-6.87,48.6-20.03,9.48-9.48,20.62-20.62,18.08-50.65-.47-5.51,6.14-8.65,10.05-4.74l8.52,8.52Z"/>
  <path class="cls-1" d="M420.65,385.12l-75.16,75.16c-2.31,2.31-6.05,2.31-8.35,0l-31.9-31.9,65.48-18.03,18.03-65.48,31.9,31.9c2.31,2.31,2.31,6.05,0,8.35Z"/>
  <rect class="cls-2" x="335.81" y="421.72" width="118.1" height="25.54" rx="5.91" ry="5.91" transform="translate(-191.58 406.47) rotate(-45)"/>
  <rect class="cls-4" x="356.64" y="442.54" width="118.1" height="25.54" rx="5.91" ry="5.91" transform="translate(-200.2 427.29) rotate(-45)"/>
  <path class="cls-2" d="M213.17,207.83c-12.42-12.42-32.55-12.42-44.97,0-12.42,12.42-12.42,32.55,0,44.97,7.48,7.48,17.77,10.45,27.48,8.91l165.49,165.49,26.4-26.4-165.49-165.49c1.54-9.71-1.43-19.99-8.91-27.48ZM210.45,225.02l-5.29,19.76-19.76,5.29-14.46-14.46,5.29-19.76,19.76-5.29,14.46,14.46Z"/>
  <path class="cls-4" d="M219.28,271.96l116.02,116.02c4.83,4.82,12.65,4.83,17.47,0,1.58-1.58,2.6-3.5,3.14-5.52.1,3.28-1.08,6.59-3.58,9.1-4.82,4.83-12.65,4.83-17.47,0l-116.02-116.02c-3.24-3.24-4.25-7.82-3.14-11.95.09,3.04,1.26,6.05,3.58,8.37Z"/>
  <path class="cls-2" d="M26.76,214v47.16c0,6.65,4.69,12.39,11.21,13.71l42.04,8.52c2.12,8.18,4.83,16.11,8.03,23.78,1.97,4.72,7.66,6.66,12.23,4.38l37.6-18.8c4.22-2.11,5.91-7.06,4.21-11.45-8.02-20.75-10.66-44.17-5.62-68.73,10.53-51.38,54.45-91.06,106.63-96.41,73.22-7.5,134.99,49.75,134.99,121.43,0,15.55-2.99,30.38-8.32,44.04-1.71,4.39-.02,9.32,4.19,11.43l37.63,18.81c4.57,2.28,10.26.35,12.23-4.36,3.26-7.78,6.01-15.82,8.16-24.11l42.04-8.52c6.52-1.32,11.21-7.05,11.21-13.71v-47.16c0-6.65-4.69-12.39-11.21-13.71l-42.04-8.52c-4.27-16.44-10.73-31.96-19.14-46.25l23.69-35.74c3.68-5.55,2.94-12.91-1.77-17.62l-33.35-33.35c-4.71-4.7-12.07-5.44-17.62-1.77l-35.74,23.69c-14.29-8.41-29.81-14.87-46.25-19.14l-8.52-42.04c-1.32-6.52-7.05-11.21-13.71-11.21h-47.16c-6.65,0-12.39,4.69-13.71,11.21l-8.52,42.04c-16.44,4.27-31.96,10.74-46.25,19.14l-35.74-23.7c-5.55-3.68-12.91-2.94-17.62,1.77l-33.35,33.35c-4.7,4.71-5.44,12.07-1.77,17.62l23.69,35.74c-8.41,14.29-14.87,29.81-19.14,46.25l-42.04,8.52c-6.52,1.32-11.21,7.05-11.21,13.71Z"/>
</svg>