<?xml version="1.0" encoding="UTF-8"?>
<svg id="Layer_1" data-name="Layer 1" xmlns="http://www.w3.org/2000/svg" viewBox="0 0 512 512">
  <defs>
    <style>
      .cls-1 {
        letter-spacing: 0em;
      }

      .cls-1, .cls-2, .cls-3, .cls-4 {
        fill: #1c2e5b;
      }

      .cls-2 {
        letter-spacing: 0em;
      }

      .cls-3 {
        fill-rule: evenodd;
      }

      .cls-5 {
        fill: #43557c;
      }

      .cls-6 {
        font-family: Tajawal-Black, Tajawal;
        font-size: 93.41px;
        font-weight: 800;
      }

      .cls-7 {
        fill: #f0b71a;
      }
    </style>
  </defs>
  <g>
    <path class="cls-7" d="M256,78.88c-8.06,0-15.73,1.63-22.72,4.56-2.95,1.24-4.94,4.05-4.94,7.25v97.61c0,2.93,1.66,5.62,4.28,6.93l19.91,9.95c2.18,1.09,4.75,1.09,6.93,0l19.91-9.95c2.62-1.31,4.28-4,4.28-6.93v-97.61c0-3.2-1.99-6.01-4.94-7.25-6.99-2.93-14.67-4.56-22.72-4.56Z"/>
    <rect class="cls-5" x="130.08" y="291.13" width="47.28" height="70.61" transform="translate(-185.81 204.31) rotate(-45)"/>
    <path class="cls-3" d="M154.8,263.85c-12.79,12.79-9.38,36.92,7.6,53.91s41.12,20.39,53.91,7.6l4.85-4.85c2.91-2.91.52-7.86-3.57-7.39-16.43,1.89-26.1-5.06-35.79-14.76-6.98-6.98-15.19-15.19-13.31-37.3.34-4.06-4.52-6.37-7.4-3.49l-6.28,6.28Z"/>
    <path class="cls-3" d="M134.72,290.07l55.36,55.36c1.7,1.7,4.45,1.7,6.15,0l23.5-23.5-48.23-13.28-13.28-48.23-23.5,23.5c-1.7,1.7-1.7,4.45,0,6.15Z"/>
    <rect class="cls-4" x="144.31" y="282.95" width="18.81" height="86.99" rx="4.35" ry="4.35" transform="translate(-185.81 204.31) rotate(-45)"/>
    <rect class="cls-7" x="128.97" y="298.28" width="18.81" height="86.99" rx="4.35" ry="4.35" transform="translate(-201.14 197.95) rotate(-45)"/>
    <path class="cls-4" d="M280.98,179.73l-121.89,121.89,19.45,19.45,121.89-121.89c7.15,1.13,14.73-1.05,20.24-6.56,9.15-9.15,9.15-23.97,0-33.12-9.15-9.15-23.97-9.15-33.12,0-5.51,5.51-7.7,13.09-6.56,20.24ZM300.21,161.5l14.55,3.9,3.9,14.55-10.65,10.65-14.55-3.9-3.9-14.55,10.65-10.65Z"/>
    <path class="cls-7" d="M283.04,206.73l-85.46,85.46c-3.55,3.55-9.32,3.55-12.87,0-1.17-1.17-1.91-2.58-2.31-4.07-.07,2.42.79,4.86,2.64,6.7,3.55,3.55,9.32,3.55,12.87,0l85.46-85.46c2.39-2.39,3.13-5.76,2.31-8.8-.07,2.24-.93,4.46-2.64,6.17Z"/>
    <rect class="cls-5" x="322.97" y="302.8" width="70.61" height="47.28" transform="translate(-125.89 348.96) rotate(-45)"/>
    <path class="cls-3" d="M357.2,263.85c12.79,12.79,9.38,36.92-7.6,53.91-16.99,16.99-41.12,20.39-53.91,7.6l-4.85-4.85c-2.91-2.91-.52-7.86,3.57-7.39,16.43,1.89,26.1-5.06,35.79-14.76,6.98-6.98,15.19-15.19,13.31-37.3-.34-4.06,4.52-6.37,7.4-3.49l6.28,6.28Z"/>
    <path class="cls-3" d="M377.28,290.07l-55.36,55.36c-1.7,1.7-4.45,1.7-6.15,0l-23.5-23.5,48.23-13.28,13.28-48.23,23.5,23.5c1.7,1.7,1.7,4.45,0,6.15Z"/>
    <rect class="cls-4" x="314.79" y="317.03" width="86.99" height="18.81" rx="4.35" ry="4.35" transform="translate(-125.89 348.96) rotate(-45)"/>
    <rect class="cls-7" x="330.12" y="332.37" width="86.99" height="18.81" rx="4.35" ry="4.35" transform="translate(-132.24 364.29) rotate(-45)"/>
    <path class="cls-4" d="M224.45,159.49c-9.15-9.15-23.97-9.15-33.12,0-9.15,9.15-9.15,23.97,0,33.12,5.51,5.51,13.09,7.7,20.24,6.56l121.89,121.89,19.45-19.45-121.89-121.89c1.13-7.15-1.05-14.73-6.56-20.24ZM222.45,172.15l-3.9,14.55-14.55,3.9-10.65-10.65,3.9-14.55,14.55-3.9,10.65,10.65Z"/>
    <path class="cls-7" d="M228.96,206.73l85.46,85.46c3.55,3.55,9.32,3.55,12.87,0,1.17-1.17,1.91-2.58,2.31-4.07.07,2.42-.79,4.86-2.64,6.7-3.55,3.55-9.32,3.55-12.87,0l-85.46-85.46c-2.39-2.39-3.13-5.76-2.31-8.8.07,2.24.93,4.46,2.64,6.17Z"/>
    <path class="cls-4" d="M87.15,164.04v34.74c0,4.9,3.45,9.12,8.26,10.1l30.97,6.28c1.56,6.02,3.56,11.86,5.91,17.51,1.45,3.48,5.64,4.91,9.01,3.22l27.7-13.85c3.11-1.55,4.35-5.2,3.1-8.43-5.91-15.29-7.85-32.53-4.14-50.62,7.76-37.85,40.11-67.07,78.54-71.01,53.93-5.53,99.43,36.64,99.43,89.44,0,11.45-2.2,22.37-6.13,32.44-1.26,3.23-.02,6.87,3.08,8.42l27.72,13.86c3.37,1.68,7.56.26,9.01-3.21,2.4-5.73,4.43-11.65,6.01-17.76l30.97-6.28c4.8-.97,8.26-5.2,8.26-10.1v-34.73c0-4.9-3.45-9.12-8.26-10.1l-30.97-6.28c-3.15-12.11-7.91-23.54-14.1-34.07l17.45-26.32c2.71-4.09,2.16-9.51-1.3-12.98l-24.56-24.56c-3.47-3.47-8.89-4.01-12.98-1.3l-26.32,17.45c-10.53-6.19-21.96-10.95-34.07-14.1l-6.28-30.97c-.97-4.8-5.2-8.26-10.1-8.26h-34.74c-4.9,0-9.12,3.45-10.1,8.26l-6.28,30.97c-12.11,3.15-23.54,7.91-34.07,14.1l-26.32-17.45c-4.08-2.71-9.51-2.16-12.98,1.3l-24.56,24.56c-3.47,3.47-4.01,8.89-1.3,12.98l17.45,26.32c-6.19,10.53-10.95,21.96-14.1,34.07l-30.97,6.28c-4.8.97-8.26,5.2-8.26,10.1Z"/>
  </g>
  <text class="cls-6" transform="translate(13.51 458.99)"><tspan class="cls-4" x="0" y="0">Ramou</tspan><tspan class="cls-2" x="286.95" y="0">s</tspan><tspan class="cls-1" x="326.65" y="0">e</tspan><tspan x="377.09" y="0"> </tspan><tspan class="cls-7" x="400.72" y="0">AI</tspan></text>
</svg>